<svg xmlns="http://www.w3.org/2000/svg" viewBox="0 0 399 399"><defs><style>.cls-1{fill:#3299bb;}.cls-2{fill:none;stroke:#f8ab0f;stroke-miterlimit:10;}.cls-3{fill:#f8ab0f;}.cls-4,.cls-5{fill:#005361;}.cls-4{opacity:0.21;}</style></defs><g id="Frame_11" data-name="Frame 11"><path class="cls-1" d="M140.87,236q-4.68,0-12.18-.22l-12.19-.27-16.26-.22q-2.44.06-7-.21c-1.06-.19-1.58-.75-1.58-1.69q0-5.93.19-17.76T92,197.82q0-6.3-.38-18.9T91.27,160c0-.79.54-1.19,1.63-1.19s2.71,0,4.87.16,3.76.16,4.81.16c1.2,0,3-.06,5.33-.19s4.13-.19,5.33-.19c.54,0,.8.35.76,1l0,.7q-.66,10.23-1.47,30.73l-.06,14.36q0,7,.06,10.17c0,.44.07.87.11,1.31s.3.7.81.81h1.42q4.89,0,14.65-.51t14.66-.52c1,0,1.47.42,1.47,1.25a82.08,82.08,0,0,1-1.36,16q-.27,1.41-1.14,1.68A11.45,11.45,0,0,1,140.87,236Z"/><path class="cls-1" d="M201.24,205.49c0,3.67-1.18,5.75-3.54,6.26-.39.07-4.15.47-11.25,1.19q-6.42.7-19.15,1.69a7.71,7.71,0,0,0,4.62,5.38,16.28,16.28,0,0,0,7.18,1.53,20.55,20.55,0,0,0,9.74-2.61l4.13-2.61q1.14.54,3.84,5.54t2.69,6.37c0,.25-.27.67-.82,1.25q-6.63,7.13-20.61,7.12-12.94,0-20.88-7.56-8.16-7.66-8.16-20.5Q149,196,156.31,188q7.51-8.26,19.91-8.26A23.64,23.64,0,0,1,194,187.38,25.29,25.29,0,0,1,201.24,205.49Zm-19-3.32a8.37,8.37,0,0,0-2.39-5.92,7.53,7.53,0,0,0-5.71-2.56,6.88,6.88,0,0,0-5.66,2.88,10,10,0,0,0-2.06,6.26c0,1,.5,1.47,1.52,1.47A95,95,0,0,0,180.41,203C181.61,202.86,182.2,202.57,182.2,202.17Z"/><path class="cls-1" d="M261.88,207.83q0,4.18.49,12.46t.49,12.4c0,1.45-.63,2.23-1.9,2.34q-6.75.48-15.45.48c-.69,0-1.15-1-1.39-3.12s-.51-3.15-.84-3.18a4.85,4.85,0,0,0-1.14.92q-6.09,6.15-13,6.15a21.91,21.91,0,0,1-17.57-8.38,28.13,28.13,0,0,1-6.58-18.71q0-12.56,6.8-20.23,7.06-8,19.36-7.94,8.53,0,13.49,6c.14.18.27.27.38.27.32,0,.7-.88,1.11-2.64s.92-2.63,1.5-2.63a47.88,47.88,0,0,1,7.67,1.14A78.15,78.15,0,0,1,263,185c.54.22.82.51.82.87a10.47,10.47,0,0,1-.17,1.14A119.61,119.61,0,0,0,261.88,207.83Zm-17.51.33a10.56,10.56,0,0,0-2.91-7.64,11.05,11.05,0,0,0-15.15,0,10.59,10.59,0,0,0-2.88,7.67,10.47,10.47,0,0,0,3,7.56,9.89,9.89,0,0,0,7.39,3.15,10.06,10.06,0,0,0,7.56-3A10.55,10.55,0,0,0,244.37,208.16Z"/><path class="cls-1" d="M308.77,201.14c0,1.42-.79,2.12-2.34,2.12-.69,0-1.7,0-3-.13s-2.31-.14-3-.14c-3,0-5.05.47-6.14,1.42s-1.63,2.84-1.63,5.71c0,1.55,0,3.92.08,7.09s.08,5.54.08,7.1c0,1.05.07,2.62.22,4.71s.21,3.63.21,4.65-.59,1.36-1.79,1.46q-2.61.23-8,.22c-3.44,0-6.2-.11-8.26-.32q-1.8-.22-1.8-1.8,0-4.35.06-13t0-13q0-12.78-2.34-21.05a4.13,4.13,0,0,1-.11-.82,1.07,1.07,0,0,1,.82-1.08q3-.33,8.76-1.2c5.72-1.12,8.68-1.69,8.86-1.69.65,0,1.07,1.15,1.25,3.43s.51,3.43,1,3.43c-.51,0,1-1,4.46-2.86a21,21,0,0,1,10.06-2.85c2,0,3.05.43,3.05,1.3a42,42,0,0,1-.33,4.46c-.21,2.07-.34,3.56-.38,4.46s0,2.45.06,4.19C308.73,199,308.77,200.45,308.77,201.14Z"/><path class="cls-1" d="M369.19,233.45a1.55,1.55,0,0,1-1.52,1.68q-1.53.23-7.94.22a64,64,0,0,1-8.49-.32,2,2,0,0,1-1.63-2.23c0-1.71.05-4.28.16-7.73s.17-6,.17-7.78q0-2-.11-6t-.11-6q0-7.46-6.47-7.46a9.44,9.44,0,0,0-4.95,1.85q-3,2.07-3.05,4.08v29.37a1.77,1.77,0,0,1-1.68,2c-1.27.15-3.87.22-7.78.22a65.33,65.33,0,0,1-8.27-.32c-1.12-.19-1.68-.78-1.68-1.8q0-4.24.05-12.78t.05-12.84q0-13.55-2.12-21.26a4.13,4.13,0,0,1-.11-.82,1.19,1.19,0,0,1,.82-1.19q3.42-.39,9.14-1.2c5.76-1.12,9-1.69,9.73-1.69.4,0,.71,1.23.93,3.67s.52,3.68.92,3.68q-.6,0,5.85-3.78c4.29-2.52,8.06-3.78,11.28-3.78a19.45,19.45,0,0,1,11.53,3.26,12.16,12.16,0,0,1,5.17,10.44v17.35c0,2.36,0,5.88.06,10.58S369.19,231.09,369.19,233.45Z"/><circle class="cls-2" cx="37.8" cy="158.91" r="12.45"/><circle class="cls-3" cx="37.8" cy="158.91" r="7.28"/><polygon class="cls-4" points="40.1 161.7 33.5 234.79 55.45 217.73 63.25 241.79 71.08 237.96 61.79 215.35 85.97 218.67 40.1 161.7"/><polygon class="cls-5" points="37.78 158.91 31.17 232 53.12 214.94 60.92 239 68.75 235.17 59.46 212.56 83.65 215.88 37.78 158.91"/></g></svg>
